<svg width="81" height="81" viewBox="0 0 81 81" fill="none" xmlns="http://www.w3.org/2000/svg">
<path d="M74.25 48.441C74.25 58.967 65.6154 67.5 54.9642 67.5H37.125M48.5359 30.4668C50.5464 29.7645 52.7101 29.3823 54.9642 29.3823C57.1738 29.3823 59.2964 29.7495 61.2735 30.4256M61.2735 30.4256C60.2002 20.9038 52.0287 13.5 42.1072 13.5C31.4559 13.5 22.8214 22.0329 22.8214 32.5588C22.8214 34.887 23.2438 37.1176 24.017 39.18M61.2735 30.4256C63.5786 31.2138 65.6853 32.4219 67.5 33.9572M24.017 39.18C23.1103 39.0039 22.1732 38.9117 21.2143 38.9117C13.2259 38.9117 6.75 45.3114 6.75 53.2059C6.75 61.1003 13.2259 67.5 21.2143 67.5H23.625M24.017 39.18C25.922 39.5496 27.6928 40.2887 29.25 41.3188" stroke="#01589A" stroke-width="5.0625" stroke-linecap="round"/>
</svg>
