<svg width="62" height="81" viewBox="0 0 62 81" fill="none" xmlns="http://www.w3.org/2000/svg">
<path d="M42.4959 14.4868C40.789 15.3606 38.8603 15.7057 36.9563 15.478L33.9166 18.5176L35.855 20.1806C47.0995 21.293 55.018 26.0947 55.018 30.4449C55.018 33.5507 50.9761 36.8877 44.5884 38.9471C42.9144 40.4449 40.7228 41.3921 38.3109 41.4361L33.5973 46.0176C33.5862 46.5242 33.5312 47.0088 33.4431 47.4934C41.2074 47.174 48.0025 45.4009 52.9585 42.6035C53.0686 42.7797 53.1898 42.9449 53.3329 43.0991C54.4453 44.2996 55.018 45.511 55.018 46.6894C55.018 51.6454 44.7426 57.185 30.9871 57.185C17.2316 57.185 6.9673 51.6233 6.9673 46.6674C6.9673 45.5441 7.48493 44.3877 8.49814 43.2423C8.68537 43.022 8.83955 42.7907 8.9607 42.5374C10.5246 43.4295 12.2977 44.2004 14.214 44.8833C14.4453 42.5154 15.5356 40.4009 17.1545 38.837C10.899 36.7775 6.9673 33.4846 6.9673 30.4229C6.9673 27.7247 10.04 24.8502 15.051 22.7907C14.4609 21.5213 14.1564 20.1378 14.1589 18.7379C14.1589 17.7137 14.3241 16.7335 14.6105 15.8084C5.92105 18.7709 0.359375 24.0903 0.359375 30.4229V63.3855C0.359375 73.1432 13.5312 80.489 30.9981 80.489C48.4651 80.489 61.6369 73.1322 61.6369 63.3855V30.4229C61.6369 22.967 53.9277 16.9207 42.4959 14.4868ZM30.9981 73.8921C17.2426 73.8921 6.9673 68.3524 6.9673 63.3965C6.9673 62.2731 7.48493 61.1167 8.49814 59.9714C8.78448 59.641 8.99374 59.2775 9.13691 58.8811C14.6105 61.9427 22.2757 63.7709 30.9981 63.7709C39.6876 63.7709 47.3087 61.9537 52.7823 58.9251C52.9255 59.2335 53.1017 59.5308 53.344 59.7952C54.4563 60.9956 55.029 62.207 55.029 63.3855C55.029 68.3524 44.7536 73.8921 30.9981 73.8921ZM38.1127 26.3811C37.584 26.3811 37.0885 26.4802 36.6149 26.6233L29.0047 20.0925C29.1149 19.663 29.192 19.2225 29.192 18.7489C29.192 18.2203 29.0929 17.7247 28.9497 17.2511L35.6788 10.522C36.4166 10.9075 37.2316 11.1388 38.1127 11.1388C39.5226 11.1359 40.8739 10.5745 41.8708 9.57754C42.8678 8.58059 43.4291 7.22928 43.4321 5.81938C43.4291 4.40949 42.8678 3.05817 41.8708 2.06123C40.8739 1.06428 39.5226 0.50291 38.1127 0.5C36.7028 0.50291 35.3515 1.06428 34.3545 2.06123C33.3576 3.05817 32.7962 4.40949 32.7933 5.81938C32.7933 5.9185 32.8153 6.00661 32.8263 6.09471L25.2823 13.6388C24.8307 13.5176 24.3682 13.4295 23.8836 13.4295C20.9541 13.4295 18.5642 15.8194 18.5642 18.7489C18.5642 21.6784 20.9541 24.0683 23.8836 24.0683C24.4233 24.0683 24.9409 23.9582 25.4365 23.815L33.0025 30.3128C32.8814 30.7533 32.7933 31.2159 32.7933 31.7004C32.7933 32.2291 32.8924 32.7357 33.0466 33.2203L25.3153 40.7423C24.8528 40.6101 24.3792 40.522 23.8836 40.522C20.9541 40.522 18.5642 42.9119 18.5642 45.8414C18.5642 48.7709 20.9541 51.1608 23.8836 51.1608C25.2935 51.1579 26.6448 50.5965 27.6418 49.5996C28.6387 48.6026 29.2001 47.2513 29.203 45.8414C29.203 45.3238 29.1039 44.8392 28.9717 44.3767L36.736 36.8216C37.1766 36.9427 37.6391 37.0308 38.1127 37.0308C39.5249 37.0308 40.8793 36.4698 41.8779 35.4712C42.8766 34.4726 43.4376 33.1182 43.4376 31.7059C43.4376 30.2937 42.8766 28.9393 41.8779 27.9407C40.8793 26.9421 39.5249 26.3811 38.1127 26.3811ZM38.1237 4.04626C38.594 4.04626 39.045 4.23307 39.3775 4.56559C39.71 4.89812 39.8968 5.34912 39.8968 5.81938C39.8968 6.28965 39.71 6.74065 39.3775 7.07317C39.045 7.4057 38.594 7.59251 38.1237 7.59251C37.6534 7.59251 37.2024 7.4057 36.8699 7.07317C36.5374 6.74065 36.3506 6.28965 36.3506 5.81938C36.3506 5.34912 36.5374 4.89812 36.8699 4.56559C37.2024 4.23307 37.6534 4.04626 38.1237 4.04626ZM23.8946 20.522C23.4244 20.522 22.9734 20.3352 22.6408 20.0027C22.3083 19.6702 22.1215 19.2192 22.1215 18.7489C22.1215 18.2786 22.3083 17.8276 22.6408 17.4951C22.9734 17.1626 23.4244 16.9758 23.8946 16.9758C24.3649 16.9758 24.8159 17.1626 25.1484 17.4951C25.4809 17.8276 25.6677 18.2786 25.6677 18.7489C25.6677 19.2192 25.4809 19.6702 25.1484 20.0027C24.8159 20.3352 24.3649 20.522 23.8946 20.522ZM23.8946 47.5925C23.4244 47.5925 22.9734 47.4057 22.6408 47.0732C22.3083 46.7406 22.1215 46.2896 22.1215 45.8194C22.1215 45.3491 22.3083 44.8981 22.6408 44.5656C22.9734 44.2331 23.4244 44.0463 23.8946 44.0463C24.3649 44.0463 24.8159 44.2331 25.1484 44.5656C25.4809 44.8981 25.6677 45.3491 25.6677 45.8194C25.6677 46.2896 25.4809 46.7406 25.1484 47.0732C24.8159 47.4057 24.3649 47.5925 23.8946 47.5925ZM38.1237 33.4736C37.6534 33.4736 37.2024 33.2868 36.8699 32.9542C36.5374 32.6217 36.3506 32.1707 36.3506 31.7004C36.3506 31.2302 36.5374 30.7792 36.8699 30.4466C37.2024 30.1141 37.6534 29.9273 38.1237 29.9273C38.594 29.9273 39.045 30.1141 39.3775 30.4466C39.71 30.7792 39.8968 31.2302 39.8968 31.7004C39.8968 32.1707 39.71 32.6217 39.3775 32.9542C39.045 33.2868 38.594 33.4736 38.1237 33.4736Z" fill="#01589A" stroke="#01589A" stroke-width="0.0008"/>
</svg>
