<svg width="22" height="22" viewBox="0 0 22 22" fill="none" xmlns="http://www.w3.org/2000/svg">
<g clip-path="url(#clip0_4831_2576)">
<path d="M3.96097 11.0002V11.0003C3.96106 11.811 4.09828 12.5913 4.35201 13.3176L3.72403 15.6619L1.61092 15.7066C0.900125 14.2915 0.5 12.6934 0.5 11.0002C0.5 9.38908 0.86221 7.86417 1.51008 6.50099L3.37167 6.84228L4.27924 8.90165C4.0726 9.56471 3.96097 10.2698 3.96097 11.0002Z" fill="#FBBB00" stroke="#115EA5"/>
<path d="M21.8082 8.94482C21.9345 9.61024 22.0004 10.2974 22.0004 10.9998C22.0004 11.7873 21.9176 12.5555 21.7598 13.2965C21.2243 15.818 19.8252 18.0198 17.8869 19.578L17.8863 19.5774L14.7477 19.4172L14.3035 16.6442C15.5896 15.8899 16.5947 14.7096 17.1242 13.2965H11.2422V8.94482H21.8082Z" fill="#518EF8"/>
<path d="M17.8874 19.5776L17.888 19.5782C16.003 21.0934 13.6083 22 11.0016 22C6.8125 22 3.17043 19.6586 1.3125 16.2129L4.87723 13.2949C5.80617 15.7741 8.19777 17.539 11.0016 17.539C12.2067 17.539 13.3358 17.2132 14.3046 16.6445L17.8874 19.5776Z" fill="#28B446"/>
<path d="M18.0218 2.53241L14.4583 5.44981C13.4556 4.82307 12.2703 4.46102 11.0005 4.46102C8.13327 4.46102 5.69694 6.30682 4.81454 8.87494L1.23107 5.9412H1.23047C3.0612 2.41154 6.7492 0 11.0005 0C13.6695 0 16.1167 0.950727 18.0218 2.53241Z" fill="#F14336"/>
</g>
<defs>
<clipPath id="clip0_4831_2576">
<rect width="22" height="22" fill="white"/>
</clipPath>
</defs>
</svg>
