<svg width="81" height="81" viewBox="0 0 81 81" fill="none" xmlns="http://www.w3.org/2000/svg">
<path d="M0 65.853C0 70.065 1.485 73.629 4.455 76.545C7.425 79.461 11.016 80.946 15.228 81H65.853C70.011 81 73.575 79.515 76.545 76.545C79.515 73.575 81 70.011 81 65.853V15.228C81 11.016 79.515 7.425 76.545 4.455C73.575 1.485 70.011 0 65.853 0H15.228C11.016 0 7.425 1.485 4.455 4.455C1.485 7.425 0 11.016 0 15.228L0 65.853ZM10.125 65.853V15.228C10.125 13.824 10.611 12.636 11.583 11.664C12.555 10.692 13.77 10.179 15.228 10.125H65.853C67.203 10.125 68.391 10.638 69.417 11.664C70.443 12.69 70.929 13.878 70.875 15.228V65.853C70.875 67.257 70.389 68.445 69.417 69.417C68.445 70.389 67.257 70.875 65.853 70.875H15.228C13.824 70.875 12.609 70.389 11.583 69.417C10.557 68.445 10.071 67.257 10.125 65.853ZM15.228 40.5C15.228 41.904 15.714 43.119 16.686 44.145C17.658 45.171 18.846 45.657 20.25 45.603V50.625C20.25 54.837 21.735 58.428 24.705 61.398C27.675 64.368 31.266 65.853 35.478 65.853V55.728C34.074 55.728 32.859 55.242 31.833 54.27C30.807 53.298 30.321 52.083 30.375 50.625V45.603C28.971 45.603 27.783 45.117 26.811 44.145C25.839 43.173 25.353 41.958 25.353 40.5C25.353 39.042 25.839 37.854 26.811 36.936C27.783 36.018 28.971 35.532 30.375 35.478V30.375C30.375 28.971 30.861 27.783 31.833 26.811C32.805 25.839 34.02 25.353 35.478 25.353V15.228C31.266 15.228 27.675 16.713 24.705 19.683C21.735 22.653 20.25 26.217 20.25 30.375V35.478C18.846 35.478 17.658 35.964 16.686 36.936C15.714 37.908 15.228 39.096 15.228 40.5ZM45.603 65.853C49.761 65.853 53.325 64.368 56.295 61.398C59.265 58.428 60.75 54.837 60.75 50.625V45.603C62.154 45.603 63.342 45.117 64.314 44.145C65.286 43.173 65.799 41.958 65.853 40.5C65.907 39.042 65.394 37.854 64.314 36.936C63.234 36.018 62.046 35.532 60.75 35.478V30.375C60.75 26.217 59.265 22.653 56.295 19.683C53.325 16.713 49.761 15.228 45.603 15.228V25.353C46.953 25.353 48.141 25.839 49.167 26.811C50.193 27.783 50.679 28.971 50.625 30.375V35.478C52.029 35.478 53.217 35.964 54.189 36.936C55.161 37.908 55.674 39.096 55.728 40.5C55.782 41.904 55.269 43.119 54.189 44.145C53.109 45.171 51.921 45.657 50.625 45.603V50.625C50.625 52.029 50.139 53.244 49.167 54.27C48.195 55.296 47.007 55.782 45.603 55.728V65.853Z" fill="#01589A"/>
</svg>
